<svg xmlns="http://www.w3.org/2000/svg" version="1.1" viewBox="20.27 14.43 409.94 85.01">
<path d="M0 0 C0.84240234 -0.01611328 1.68480469 -0.03222656 2.55273438 -0.04882812 C10.50785405 -0.05495216 18.0402239 1.72766176 24.4296875 6.67578125 C34.71760627 16.98831226 34.41437457 30.56907114 34.6875 44.125 C34.72533416 45.69247624 34.7636667 47.25994053 34.80249023 48.82739258 C35.06685764 59.99109505 35.15183495 71.14563174 35.0625 82.3125 C28.4625 82.3125 21.8625 82.3125 15.0625 82.3125 C12.91964286 69.05357143 12.91964286 69.05357143 13.0625 64.3125 C12.4025 64.3125 11.7425 64.3125 11.0625 64.3125 C10.98 64.84875 10.8975 65.385 10.8125 65.9375 C8.72040637 72.56246315 3.62917968 77.39590936 -1.9375 81.3125 C-6.95626657 83.893923 -11.28263025 84.83572734 -16.875 84.75 C-17.93050049 84.73646484 -17.93050049 84.73646484 -19.00732422 84.72265625 C-25.72632115 84.49832619 -30.00973045 83.35236884 -34.671875 78.51171875 C-39.64842029 72.40952631 -41.61889277 66.21665615 -40.9375 58.3125 C-39.77003368 51.81630128 -37.35034483 47.88294712 -32.15625 43.80859375 C-21.72024727 36.77164121 -8.90689201 35.4406623 3.3203125 33.83984375 C5.91591466 33.34068949 7.78618062 32.62492338 10.0625 31.3125 C10.39600061 26.42719709 10.39600061 26.42719709 8.75 21.9375 C5.32998165 18.644149 1.10937516 18.97122907 -3.37109375 19.04296875 C-7.31178634 19.45683144 -10.02509774 20.62185426 -12.9375 23.3125 C-14.85315012 25.86021742 -16.45310837 28.49420805 -17.9375 31.3125 C-22.58082948 30.89037914 -26.84787223 29.85856812 -31.3125 28.5 C-32.35148437 28.18417969 -33.39046875 27.86835937 -34.4609375 27.54296875 C-36.9375 26.3125 -36.9375 26.3125 -37.8828125 24.4140625 C-38.02296876 19.02805783 -34.27997096 14.39359371 -30.75 10.625 C-21.86239787 2.30711595 -11.85928431 -0.04516102 0 0 Z M-0.75 46.5625 C-1.74837891 46.76746094 -2.74675781 46.97242188 -3.77539062 47.18359375 C-9.04972113 48.34317341 -13.08046283 49.2694841 -16.9375 53.3125 C-18.50685594 56.45121188 -18.28951103 58.85105822 -17.9375 62.3125 C-16.2114971 65.45608251 -16.2114971 65.45608251 -12.9375 67.3125 C-6.99068698 68.35146068 -2.02171174 67.66345774 3.0625 64.3125 C7.46744801 61.1167534 10.26647891 58.50100537 12.0625 53.3125 C12.28526118 50.29284848 12.2437428 47.33321326 12.0625 44.3125 C7.74798054 44.3125 3.44834631 45.64620489 -0.75 46.5625 Z " fill="#ffffff" transform="translate(159.9375,14.6875)"/>
<path d="M0 0 C1.18408447 0.00737183 1.18408447 0.00737183 2.39208984 0.01489258 C13.26804171 0.23303808 21.64577823 3.47039704 29.8125 10.6875 C39.71556104 21.92881253 41.80553824 33.49466943 41.25244141 48.30273438 C40.59910245 58.60596486 36.58043043 67.86838789 29.2421875 75.19140625 C17.86381844 84.38162742 4.16764336 85.5616922 -9.875 84.3125 C-20.97668378 82.29760366 -28.3296878 77.25900578 -34.625 68.1875 C-41.57729301 56.56389101 -42.67039494 42.81693534 -40.18359375 29.65234375 C-36.74379719 17.34679537 -30.78704924 9.92786206 -19.875 3.5625 C-13.26789736 0.80954057 -7.08492998 -0.05237413 0 0 Z M-13.6875 23.9375 C-19.04123676 31.1051673 -18.62699814 41.32471482 -17.5625 49.80078125 C-16.6293455 54.75816454 -15.0370589 58.28806141 -11.875 62.3125 C-11.42125 62.89 -10.9675 63.4675 -10.5 64.0625 C-6.15435749 67.40530193 -1.17315019 67.77725002 4.125 67.3125 C10.170163 65.36575259 13.0263537 62.87103307 16.20947266 57.47363281 C17.99929567 53.24869593 17.49432488 48.58557053 17.5 44.0625 C17.53673828 42.54462891 17.53673828 42.54462891 17.57421875 40.99609375 C17.60192954 33.87441991 16.66041735 28.11083793 11.67724609 22.75708008 C7.65724286 19.17777239 4.99374751 18.45353755 -0.1875 18.0625 C-5.90092875 18.4498511 -9.50059712 20.02972398 -13.6875 23.9375 Z " fill="#ffffff" transform="translate(388.875,14.6875)"/>
<path d="M0 0 C0.75539062 0.32484375 1.51078125 0.6496875 2.2890625 0.984375 C6.32749077 2.83948339 6.32749077 2.83948339 8 4 C8.495 5.485 8.495 5.485 9 7 C9.99 7.33 10.98 7.66 12 8 C12 8.66 12 9.32 12 10 C12.99 10.33 13.98 10.66 15 11 C16.5703125 13.328125 16.5703125 13.328125 18.125 16.25 C18.64320312 17.20390625 19.16140625 18.1578125 19.6953125 19.140625 C22.06139191 24.32616431 22.1822351 29.24155916 22.1875 34.875 C22.19974609 35.55691406 22.21199219 36.23882812 22.22460938 36.94140625 C22.24432714 43.84262408 20.60886563 49.5099382 17 55.4375 C16.484375 56.30246094 15.96875 57.16742188 15.4375 58.05859375 C14.963125 58.69925781 14.48875 59.33992188 14 60 C13.34 60 12.68 60 12 60 C11.67 60.99 11.34 61.98 11 63 C10.34 63 9.68 63 9 63 C8.505 64.485 8.505 64.485 8 66 C5.70703125 67.5703125 5.70703125 67.5703125 2.8125 69.125 C1.87019531 69.64320312 0.92789063 70.16140625 -0.04296875 70.6953125 C-9.12144185 74.70087395 -21.75389649 74.39023795 -31 71 C-41.12957316 66.18028374 -48.98162757 58.60214648 -53 48 C-55.98563785 39.0834329 -54.92952621 26.85324492 -51.26171875 18.359375 C-46.33525717 9.14704436 -38.94950204 1.62645402 -29 -2 C-19.25681846 -4.0377014 -9.15160105 -4.13750545 0 0 Z M-18 0 C-23.86365891 24.31463893 -23.46326715 45.65669802 -18 70 C-16.35295661 67.52943492 -15.38597095 65.58539272 -14.3125 62.875 C-9.4211616 51.75668099 -0.33761439 42.48545778 11 38 C13.32408006 37.22824666 15.62135302 36.59466175 18 36 C18 35.34 18 34.68 18 34 C17.16597656 33.72027344 16.33195312 33.44054688 15.47265625 33.15234375 C2.14484659 28.40440698 -6.90923853 21.44680189 -13.25 8.75 C-13.72953125 7.73421875 -14.2090625 6.7184375 -14.703125 5.671875 C-15.98782537 2.87125447 -15.98782537 2.87125447 -18 0 Z " fill="#3E976F" transform="translate(75,22)"/>
<path d="M0 0 C0.74241943 0.00563965 1.48483887 0.0112793 2.24975586 0.01708984 C13.93794833 0.27458956 21.86662874 4.15451618 29.9375 12.5625 C33.28688302 16.62374099 34.46503776 21.25547164 35.625 26.3125 C31.279425 28.28776136 26.88217037 29.98717832 22.375 31.5625 C21.35921875 31.91828125 20.3434375 32.2740625 19.296875 32.640625 C16.625 33.3125 16.625 33.3125 13.625 32.3125 C12.81640625 30.60546875 12.81640625 30.60546875 12.1875 28.5 C10.88973876 24.84267286 10.00804429 22.48111814 6.625 20.3125 C1.93350589 19.13142456 -2.64133234 18.70274046 -7.25 20.375 C-13.13041313 24.02085614 -14.79371726 28.81167097 -16.375 35.3125 C-17.07539902 43.80824913 -16.78847765 51.45973276 -13.375 59.3125 C-13.045 60.3025 -12.715 61.2925 -12.375 62.3125 C-6.6910831 66.0289072 -0.33110328 66.79354968 6.2578125 65.90234375 C10.1472149 64.93320223 12.0403724 63.33840548 14.625 60.3125 C15.91963262 57.37373317 16.85159938 54.42645512 17.625 51.3125 C33.98863636 53.49431818 33.98863636 53.49431818 37.625 55.3125 C37.28032373 62.55070173 35.52285009 67.22840189 31.625 73.3125 C30.965 73.3125 30.305 73.3125 29.625 73.3125 C29.13 74.7975 29.13 74.7975 28.625 76.3125 C26.5859375 77.84765625 26.5859375 77.84765625 24 79.375 C23.16210938 79.88160156 22.32421875 80.38820313 21.4609375 80.91015625 C14.7792515 84.21418555 8.61787221 84.65122172 1.3125 84.625 C0.42626953 84.64111328 -0.45996094 84.65722656 -1.37304688 84.67382812 C-12.55196205 84.68198197 -21.9608163 81.3981175 -30.12890625 73.6484375 C-39.25661553 63.62854611 -40.97897547 51.93946124 -40.6875 38.8671875 C-40.08324956 26.79728494 -35.24281116 16.56068579 -26.375 8.4375 C-18.52425593 1.99929511 -9.95920464 -0.07973743 0 0 Z " fill="#ffffff" transform="translate(306.375,14.6875)"/>
<path d="M0 0 C-0.33 7.59 -0.66 15.18 -1 23 C-4.15907445 24.05302482 -5.41779615 23.92112598 -8.625 23.4375 C-13.78392899 22.83056718 -18.0468204 23.55233156 -23 25 C-23 25.66 -23 26.32 -23 27 C-23.45117188 27.44601563 -23.90234375 27.89203125 -24.3671875 28.3515625 C-26.23783348 30.2401094 -27.0709159 31.94313669 -28.125 34.375 C-28.45757812 35.12523437 -28.79015625 35.87546875 -29.1328125 36.6484375 C-31.05971245 41.87363465 -31.19869306 47.06334342 -31.31640625 52.58203125 C-31.33718735 53.39621017 -31.35796844 54.2103891 -31.37937927 55.04924011 C-31.44449463 57.63691179 -31.50358208 60.22468053 -31.5625 62.8125 C-31.60572142 64.57227545 -31.64933685 66.33204128 -31.69335938 68.09179688 C-31.8001368 72.39443309 -31.90151018 76.69716643 -32 81 C-35.64581687 81.02887512 -39.29160463 81.04675585 -42.9375 81.0625 C-44.49887695 81.07506836 -44.49887695 81.07506836 -46.09179688 81.08789062 C-47.08115234 81.09111328 -48.07050781 81.09433594 -49.08984375 81.09765625 C-50.46450806 81.10551147 -50.46450806 81.10551147 -51.86694336 81.11352539 C-54 81 -54 81 -55 80 C-55.10029857 77.57142965 -55.13618425 75.17128387 -55.12939453 72.7421875 C-55.13114685 71.98286926 -55.13289917 71.22355103 -55.13470459 70.44122314 C-55.1391233 67.91912584 -55.13618506 65.39709807 -55.1328125 62.875 C-55.13348553 61.13004544 -55.13445555 59.38509096 -55.13571167 57.64013672 C-55.13718867 53.97818105 -55.13503403 50.31624972 -55.13037109 46.65429688 C-55.1246738 41.94955508 -55.1279528 37.24487032 -55.13394356 32.54013062 C-55.13754912 28.93546109 -55.13641061 25.33080518 -55.13381577 21.72613525 C-55.13314648 19.99090569 -55.13397496 18.25567491 -55.13629532 16.52044678 C-55.13882177 14.09953513 -55.13498138 11.67871714 -55.12939453 9.2578125 C-55.13141876 8.53362122 -55.13344299 7.80942993 -55.13552856 7.06329346 C-55.11426266 2.11426266 -55.11426266 2.11426266 -54 1 C-52.58429877 0.91348389 -51.164405 0.89295096 -49.74609375 0.90234375 C-48.9770874 0.90484131 -48.20808105 0.90733887 -47.41577148 0.90991211 C-46.43294189 0.91901611 -45.4501123 0.92812012 -44.4375 0.9375 C-39.7659375 0.9684375 -39.7659375 0.9684375 -35 1 C-34.67 8.92 -34.34 16.84 -34 25 C-33.4225 22.97875 -32.845 20.9575 -32.25 18.875 C-28.80000745 7.71111567 -28.80000745 7.71111567 -23.75 4.625 C-22.88375 4.315625 -22.88375 4.315625 -22 4 C-22 3.34 -22 2.68 -22 2 C-15.48974966 -0.70054829 -6.70371334 -3.35185667 0 0 Z " fill="#ffffff" transform="translate(263,16)"/>
<path d="M0 0 C-2.81484045 1.40742022 -4.56936113 0.66652164 -7.625 0.0625 C-8.62789062 -0.13214844 -9.63078125 -0.32679687 -10.6640625 -0.52734375 C-11.43492188 -0.68332031 -12.20578125 -0.83929687 -13 -1 C-13.68707555 1.49064888 -14 3.37886292 -14 6 C-14.66 6 -15.32 6 -16 6 C-16.33 5.01 -16.66 4.02 -17 3 C-17.99 6.63 -18.98 10.26 -20 14 C-20.99 13.67 -21.98 13.34 -23 13 C-22.34 12.01 -21.68 11.02 -21 10 C-20.54227937 7.26127045 -20.54227937 7.26127045 -20.375 4.3125 C-20.30023438 3.31863281 -20.22546875 2.32476562 -20.1484375 1.30078125 C-20.09945312 0.54152344 -20.05046875 -0.21773437 -20 -1 C-22.97 -1 -25.94 -1 -29 -1 C-29 -1.33 -29 -1.66 -29 -2 C-18.95501742 -3.89010294 -9.49928889 -3.93074023 0 0 Z " fill="#4B8E71" transform="translate(75,22)"/>
<path d="M0 0 C0 0.99 0 1.98 0 3 C-0.66 3 -1.32 3 -2 3 C-2.433125 3.8971875 -2.433125 3.8971875 -2.875 4.8125 C-5.05332716 9.04813614 -6.54038031 10.47434063 -11 12 C-9.7698784 7.48955412 -5.21930776 0 0 0 Z " fill="#458B6F" transform="translate(37,26)"/>
<path d="M0 0 C3.3502463 3.81234923 5.16974789 7.33285711 7 12 C6.01 12.66 5.02 13.32 4 14 C2.47688687 12.47688687 2.43725521 10.77471043 2 8.6875 C1.38401282 5.77599809 0.73888874 2.88298554 0 0 Z " fill="#478E71" transform="translate(89,33)"/>
<path d="M0 0 C0.90492187 0.46019531 0.90492187 0.46019531 1.828125 0.9296875 C4.17475573 2.08612063 6.5626303 3.052134 9 4 C9 4.99 9 5.98 9 7 C9.33 7.66 9.66 8.32 10 9 C6.78956118 7.61811547 4.95063635 6.07578097 2.75 3.375 C2.22921875 2.74335937 1.7084375 2.11171875 1.171875 1.4609375 C0.78515625 0.97882812 0.3984375 0.49671875 0 0 Z " fill="#4A9173" transform="translate(66,39)"/>
<path d="M0 0 C1.98 0 3.96 0 6 0 C6 0.66 6 1.32 6 2 C7.32 2.66 8.64 3.32 10 4 C9.01 4.495 9.01 4.495 8 5 C6.0546875 4.22265625 6.0546875 4.22265625 3.875 3.0625 C3.15054688 2.68222656 2.42609375 2.30195312 1.6796875 1.91015625 C1.12539062 1.60980469 0.57109375 1.30945312 0 1 C0 0.67 0 0.34 0 0 Z " fill="#4B9471" transform="translate(79,50)"/>
<path d="M0 0 C0.33 0 0.66 0 1 0 C0.67 4.62 0.34 9.24 0 14 C-1.74627478 11.38058783 -2.38722388 9.96175123 -3 7 C-2.01 6.67 -1.02 6.34 0 6 C0 4.02 0 2.04 0 0 Z " fill="#4A8D71" transform="translate(53,37)"/>
<path d="M0 0 C0.66 0.33 1.32 0.66 2 1 C2.40729228 3.32156597 2.74438677 5.6568787 3 8 C1.35 8 -0.3 8 -2 8 C-1.34 7.01 -0.68 6.02 0 5 C0.16713569 2.37468476 0.16713569 2.37468476 0 0 Z " fill="#408767" transform="translate(53,78)"/>
<path d="M0 0 C0.33 0 0.66 0 1 0 C1 3.96 1 7.92 1 12 C0.67 12 0.34 12 0 12 C-0.38897161 10.37828761 -0.76078298 8.75245075 -1.125 7.125 C-1.43824219 5.76761719 -1.43824219 5.76761719 -1.7578125 4.3828125 C-1.83773437 3.59648438 -1.91765625 2.81015625 -2 2 C-1.34 1.34 -0.68 0.68 0 0 Z " fill="#4C8C72" transform="translate(96,53)"/>
</svg>