<svg xmlns="http://www.w3.org/2000/svg" version="1.1" viewBox="123 41.17 312 117.97"><path d="M0 0 C7.39872284 4.0043267 10.90837972 9.4969093 14.1796875 17.1796875 C16.55135009 28.04389036 15.70870089 38.51377332 10.4921875 48.3671875 C4.32059553 55.87317773 -1.74317618 60.36033742 -11.51953125 61.4921875 C-18.10154906 61.78594562 -23.12219808 60.47929329 -28.8203125 57.1796875 C-29.3153125 56.6846875 -29.3153125 56.6846875 -29.8203125 56.1796875 C-30.1503125 66.4096875 -30.4803125 76.6396875 -30.8203125 87.1796875 C-34.33768571 88.35214524 -37.1778257 88.31235035 -40.8828125 88.3046875 C-42.13191406 88.30726563 -43.38101563 88.30984375 -44.66796875 88.3125 C-47.8203125 88.1796875 -47.8203125 88.1796875 -49.8203125 87.1796875 C-50.48191776 65.20066798 -50.92571439 43.23193238 -50.9453125 21.2421875 C-50.94781006 20.2470816 -50.95030762 19.25197571 -50.95288086 18.22671509 C-50.95871567 15.41022156 -50.95731917 12.59383819 -50.953125 9.77734375 C-50.95510895 8.9333905 -50.9570929 8.08943726 -50.95913696 7.21990967 C-50.93565441 1.41037132 -50.93565441 1.41037132 -49.8203125 -0.8203125 C-44.71698399 -1.6122083 -44.71698399 -1.6122083 -41.8203125 -0.8203125 C-39.83994666 1.34947964 -38.48085327 3.55375021 -37.046875 6.11328125 C-35.98830855 8.32105107 -35.98830855 8.32105107 -33.8203125 9.1796875 C-33.46259766 8.04273437 -33.46259766 8.04273437 -33.09765625 6.8828125 C-31.60977505 3.73414648 -30.30668147 2.75410492 -27.3828125 0.9296875 C-26.60035156 0.42953125 -25.81789062 -0.070625 -25.01171875 -0.5859375 C-17.30056562 -4.92947474 -7.74280864 -3.58692413 0 0 Z M-27.8203125 12.1796875 C-32.27489976 20.04945833 -32.13833112 30.58873756 -30.09375 39.26171875 C-28.30232092 44.11896751 -26.21411799 48.25048384 -21.8203125 51.1796875 C-18.66367127 51.86966372 -15.97504266 51.88519988 -12.8203125 51.1796875 C-7.60967203 47.44161934 -5.56598615 42.36574766 -4.1328125 36.2421875 C-3.29807469 28.06175699 -3.27898914 18.43599135 -8.0625 11.3359375 C-11.11576887 8.22846859 -13.25840895 7.23587785 -17.5703125 6.8046875 C-22.15628195 6.88791744 -24.99265344 8.61208028 -27.8203125 12.1796875 Z " fill="#FFFFFF" transform="translate(249.8203125,70.8203125)"></path><path d="M0 0 C2.46352658 2.03331514 4.77314627 4.14801601 7 6.4375 C5.52278578 9.88951639 3.56205999 12.08711936 0.875 14.6875 C0.15054688 15.39390625 -0.57390625 16.1003125 -1.3203125 16.828125 C-1.87460938 17.35921875 -2.42890625 17.8903125 -3 18.4375 C-6.62484399 17.22921867 -6.91408638 16.32040143 -8.8125 13.125 C-12.11349084 7.96001682 -15.1062058 5.40209807 -21 3.4375 C-27.08046765 2.82473969 -31.64103101 3.48459872 -37 6.4375 C-39.31537595 9.25458195 -39.31537595 9.25458195 -38.8125 12.4375 C-37.95675089 15.59718903 -37.45818869 16.42869562 -35 18.4375 C-33.11049578 19.21136817 -33.11049578 19.21136817 -31.0078125 19.6484375 C-30.22647949 19.83833252 -29.44514648 20.02822754 -28.64013672 20.22387695 C-27.8101416 20.41812256 -26.98014648 20.61236816 -26.125 20.8125 C-1.88762449 26.90737247 -1.88762449 26.90737247 6 36.4375 C9.00826733 42.44436177 8.95914851 48.92692197 7.20703125 55.33984375 C6.26892891 57.84504424 5.40226369 60.15823527 4 62.4375 C3.01 62.7675 2.02 63.0975 1 63.4375 C1 64.0975 1 64.7575 1 65.4375 C-7.08884189 70.49302618 -14.44174121 71.81278077 -23.875 71.75 C-24.75978027 71.74436035 -25.64456055 71.7387207 -26.55615234 71.73291016 C-38.27436509 71.51458522 -48.6173316 67.99827261 -57.125 59.5625 C-58.053125 58.510625 -58.053125 58.510625 -59 57.4375 C-57.52278578 53.98548361 -55.56205999 51.78788064 -52.875 49.1875 C-52.15054688 48.48109375 -51.42609375 47.7746875 -50.6796875 47.046875 C-50.12539062 46.51578125 -49.57109375 45.9846875 -49 45.4375 C-45.55814667 46.58478444 -45.19639411 47.27884363 -43.25 50.1875 C-39.71604752 55.09625694 -35.84280881 58.48989706 -30 60.4375 C-23.50125763 60.92514012 -17.541014 61.33118552 -12 57.4375 C-10.56264754 54.56279507 -10.61827351 52.61855412 -11 49.4375 C-15.40495873 44.57189199 -21.57730277 43.6048111 -27.6875 42 C-39.77173877 38.81204129 -50.4039199 35.72583914 -57.13671875 24.55078125 C-59.26990527 19.32881787 -58.62793743 12.59152638 -57.0625 7.25 C-54.47748386 1.37935587 -49.40051441 -2.67962258 -43.890625 -5.73046875 C-29.88048729 -11.0215314 -11.79849407 -8.88180096 0 0 Z " fill="#FFFFFF" transform="translate(182,60.5625)"></path><path d="M0 0 C5.78346165 4.71902086 10.07820888 10.78669939 11.625 18.1875 C12.45681421 26.76938812 12.01887407 33.70046549 7.625 41.1875 C7.08875 42.198125 6.5525 43.20875 6 44.25 C5.54625 44.889375 5.0925 45.52875 4.625 46.1875 C3.965 46.1875 3.305 46.1875 2.625 46.1875 C2.625 46.8475 2.625 47.5075 2.625 48.1875 C-5.33423461 55.24272278 -15.22086618 57.82594127 -25.68359375 57.46875 C-34.73923049 56.52244253 -42.95213842 53.02560841 -49.1640625 46.23046875 C-50.69424892 44.25931728 -52.08069238 42.3211465 -53.375 40.1875 C-53.91511719 39.29804687 -54.45523437 38.40859375 -55.01171875 37.4921875 C-56.74390448 33.29325018 -56.85375996 29.80608423 -56.8125 25.3125 C-56.83248047 24.54808594 -56.85246094 23.78367187 -56.87304688 22.99609375 C-56.86589811 14.57484336 -53.15513126 8.2198244 -47.57421875 2.08203125 C-33.97449177 -9.63354173 -14.55314419 -10.12746788 0 0 Z M-31.375 5.1875 C-37.66871269 13.13923377 -38.05905649 21.31221172 -37.375 31.1875 C-36.22194762 37.67001498 -34.34113864 42.77315455 -29.375 47.1875 C-25.02114809 49.32317894 -22.20994083 49.44756354 -17.5625 48 C-12.77480699 45.27758633 -10.85233992 42.90617325 -9.0078125 37.625 C-6.45424129 27.78902201 -6.25399261 16.96713762 -11.1953125 7.9140625 C-13.33289116 4.78555334 -16.02811093 2.86094454 -19.375 1.1875 C-24.6791358 0.5847573 -27.33255735 1.74712328 -31.375 5.1875 Z " fill="#FFFFFF" transform="translate(360.375,74.8125)"></path><path d="M0 0 C5.94 0.33 11.88 0.66 18 1 C22.45455107 10.47776823 26.81873887 19.98698046 31.06616211 29.55957031 C31.61735718 30.79465332 31.61735718 30.79465332 32.1796875 32.0546875 C32.50694824 32.79187012 32.83420898 33.52905273 33.17138672 34.28857422 C33.87862324 35.98805499 33.87862324 35.98805499 35 37 C35.51385254 35.42532959 35.51385254 35.42532959 36.03808594 33.81884766 C37.3127192 29.92623036 38.60695632 26.04037113 39.90722656 22.15625 C40.4672905 20.47411127 41.02201804 18.79018601 41.57128906 17.10449219 C42.36168221 14.68195147 43.17103411 12.26648051 43.984375 9.8515625 C44.22621521 9.0963028 44.46805542 8.34104309 44.71722412 7.56289673 C46.49528023 2.37148931 46.49528023 2.37148931 49.02734375 0.5078125 C51.59017559 -0.15192639 53.63177594 0.03049683 56.25 0.375 C57.14203125 0.48585938 58.0340625 0.59671875 58.953125 0.7109375 C59.62859375 0.80632812 60.3040625 0.90171875 61 1 C60.2797096 6.01159803 58.33777577 10.46999505 56.4375 15.125 C56.07962402 16.00953857 55.72174805 16.89407715 55.35302734 17.80541992 C52.00499642 26.0508443 48.58276332 34.26390445 45.0859375 42.44726562 C43.92156532 45.18437792 42.77363315 47.92812387 41.625 50.671875 C36.01934882 63.94255375 30.01381799 76.97927302 22 89 C17.62573634 88.5139707 15.96133065 87.1638148 13 84 C13.56267578 83.00033203 13.56267578 83.00033203 14.13671875 81.98046875 C15.78971963 79.00340168 17.39563138 76.0035273 19 73 C19.80050781 71.58267578 19.80050781 71.58267578 20.6171875 70.13671875 C21.09414063 69.22535156 21.57109375 68.31398438 22.0625 67.375 C22.50722656 66.55773437 22.95195312 65.74046875 23.41015625 64.8984375 C24.31794318 60.4376567 22.67914025 57.13033793 21 53 C20.70552979 52.25379395 20.41105957 51.50758789 20.10766602 50.73876953 C19.18162937 48.43879942 18.22213692 46.15584681 17.25 43.875 C16.90074463 43.0502417 16.55148926 42.2254834 16.19165039 41.37573242 C14.03097966 36.31036103 11.7865125 31.2931029 9.4375 26.3125 C6.92226873 20.9741685 4.42272948 15.63107369 2 10.25 C1.52711548 9.22966675 1.52711548 9.22966675 1.04467773 8.1887207 C-1.11470244 3.34410731 -1.11470244 3.34410731 0 0 Z " fill="#FFFFFF" transform="translate(374,69)"></path><path d="M0 0 C4.86113554 2.02289292 6.15957902 4.5193379 8.5546875 9.03125 C8.94398438 9.72089844 9.33328125 10.41054688 9.734375 11.12109375 C12.68818264 16.3825636 13.80402094 19.15318986 13.79321289 25.18408203 C13.79335892 25.86712402 13.79350494 26.55016602 13.7936554 27.25390625 C13.79295773 29.5156571 13.78517215 31.777326 13.77734375 34.0390625 C13.77547905 35.60562088 13.77405539 37.17217984 13.77305603 38.73873901 C13.76923493 42.86514898 13.7594081 46.99152384 13.74835205 51.11791992 C13.7381292 55.32730637 13.73355653 59.53669847 13.72851562 63.74609375 C13.71778548 72.00783042 13.70019196 80.2695318 13.6796875 88.53125 C7.4096875 88.53125 1.1396875 88.53125 -5.3203125 88.53125 C-5.3203125 59.49125 -5.3203125 30.45125 -5.3203125 0.53125 C-3.3203125 -0.46875 -3.3203125 -0.46875 0 0 Z " fill="#FFFFFF" transform="translate(280.3203125,41.46875)"></path></svg>