<svg xmlns="http://www.w3.org/2000/svg" version="1.1" viewBox="152 26 312 116"><path d="M0 0 C6.09040686 3.86506589 9.1966778 9.41630192 12 16 C14.65842118 28.07366285 13.42059795 39.22496666 6.8359375 49.6640625 C2.36790126 55.34892563 -3.91544166 58.77852442 -11 60 C-18.58898589 60.74038887 -24.36454356 59.84239222 -31 56 C-31.495 55.505 -31.495 55.505 -32 55 C-32.33 65.23 -32.66 75.46 -33 86 C-39.6 86 -46.2 86 -53 86 C-53 56.96 -53 27.92 -53 -2 C-44 -2 -44 -2 -41.58984375 0.1875 C-41.04457031 1.115625 -40.49929687 2.04375 -39.9375 3 C-39.36902344 3.928125 -38.80054688 4.85625 -38.21484375 5.8125 C-37.61349609 6.8953125 -37.61349609 6.8953125 -37 8 C-36.5875 7.46890625 -36.175 6.9378125 -35.75 6.390625 C-26.04003321 -5.48674509 -13.66243604 -7.39436503 0 0 Z M-30 11 C-34.45458726 18.86977083 -34.31801862 29.40905006 -32.2734375 38.08203125 C-30.48200842 42.93928001 -28.39380549 47.07079634 -24 50 C-20.84335877 50.68997622 -18.15473016 50.70551238 -15 50 C-9.78935953 46.26193184 -7.74567365 41.18606016 -6.3125 35.0625 C-5.38210751 25.94465363 -6.01260199 16.76116557 -11 8.8125 C-14.26273049 5.85565049 -17.6131879 5.58457147 -21.9375 5.6640625 C-25.56406435 6.25475291 -27.80126759 8.22589836 -30 11 Z " fill="#021F3D" transform="translate(281,56)"></path><path d="M0 0 C4.38344822 2.95362514 8.31634561 6.21274283 12 10 C10.52278578 13.45201639 8.56205999 15.64961936 5.875 18.25 C5.15054688 18.95640625 4.42609375 19.6628125 3.6796875 20.390625 C3.12539062 20.92171875 2.57109375 21.4528125 2 22 C-1.62484399 20.79171867 -1.91408638 19.88290143 -3.8125 16.6875 C-7.11349084 11.52251682 -10.1062058 8.96459807 -16 7 C-22.00815305 6.49043278 -27.23947004 7.32420947 -33 9 C-33.2475 10.216875 -33.495 11.43375 -33.75 12.6875 C-33.88921875 13.37199219 -34.0284375 14.05648437 -34.171875 14.76171875 C-33.89963025 18.30708782 -32.58768766 19.60079339 -30 22 C-27.0975094 23.19577846 -24.12488124 23.83845599 -21.0625 24.5 C-19.34643367 24.91555628 -17.63158127 25.33615703 -15.91796875 25.76171875 C-15.07927246 25.96845215 -14.24057617 26.17518555 -13.37646484 26.38818359 C-3.81795776 28.84900327 4.56973809 32.2307133 11 40 C14.08635186 46.09381934 13.86872426 53.39626611 12.1875 59.9375 C11.08451622 62.78203713 10.10831093 64.80384278 8 67 C7.34 67 6.68 67 6 67 C6 67.66 6 68.32 6 69 C-5.66909936 76.2931871 -20.12721982 76.94146292 -33.49609375 74.3125 C-41.19158744 71.69275747 -48.59279984 67.11248714 -54 61 C-52.53033642 57.60140297 -50.61962486 55.35036291 -48 52.75 C-47.29875 52.04359375 -46.5975 51.3371875 -45.875 50.609375 C-44 49 -44 49 -42 49 C-40.703125 50.57421875 -40.703125 50.57421875 -39.25 52.6875 C-35.35834277 58.0373451 -31.41964714 61.88188968 -25 64 C-18.55028993 64.66840872 -12.48637018 64.85528716 -7 61 C-5.56264754 58.12529507 -5.61827351 56.18105412 -6 53 C-10.40495873 48.13439199 -16.57730277 47.1673111 -22.6875 45.5625 C-34.75621848 42.37863572 -45.4300993 39.29597221 -52.1328125 28.109375 C-54.47187379 22.41976645 -53.61484388 15.68977447 -51.3125 10.125 C-47.58742005 2.86885469 -42.46488256 -0.27578525 -35 -3 C-24.34836612 -6.05868019 -9.62770844 -5.54762429 0 0 Z " fill="#021F3D" transform="translate(206,41)"></path><path d="M0 0 C6.05321313 5.06493343 9.585583 11.13174901 12.0625 18.5625 C12.73547622 27.14570494 12.45843175 34.07195926 8.0625 41.5625 C7.52625 42.573125 6.99 43.58375 6.4375 44.625 C5.98375 45.264375 5.53 45.90375 5.0625 46.5625 C4.4025 46.5625 3.7425 46.5625 3.0625 46.5625 C2.7325 47.5525 2.4025 48.5425 2.0625 49.5625 C-7.49504101 56.8843589 -17.09295134 58.66724539 -28.9375 57.5625 C-38.56703028 55.4437496 -47.50217855 49.92453299 -52.9375 41.5625 C-55.7233628 36.08064095 -56.43175011 31.73853508 -56.375 25.625 C-56.4049707 24.48514648 -56.4049707 24.48514648 -56.43554688 23.32226562 C-56.42791833 14.38923638 -52.21726277 8.04886518 -46.29296875 1.61328125 C-33.40080719 -9.61123752 -13.78031297 -9.22580275 0 0 Z M-30.9375 5.5625 C-37.25923083 13.39668794 -37.48482512 21.82291967 -36.9375 31.5625 C-36.07493433 37.91709772 -33.67691114 42.82308886 -29.125 47.375 C-25.99327332 49.0750802 -23.49372389 49.43987159 -19.9375 49.5625 C-14.51040869 47.47515719 -11.73496319 45.25875111 -9.27734375 40.03125 C-7.54114777 35.06225484 -7.45880563 30.28295014 -7.5 25.0625 C-7.48001953 24.16402344 -7.46003906 23.26554687 -7.43945312 22.33984375 C-7.44387413 16.26538944 -8.45510495 11.61429646 -11.9375 6.5625 C-15.06463782 3.65872916 -17.41591676 1.73540719 -21.6875 1.25 C-25.92164962 1.65712977 -27.6988732 2.80622188 -30.9375 5.5625 Z " fill="#031F3C" transform="translate(388.9375,58.4375)"></path><path d="M0 0 C6.27 0 12.54 0 19 0 C23.00095644 8.49182592 26.93242188 16.99008402 30.60180664 25.63085938 C32.18776796 29.32120581 33.91456667 32.52427778 36 36 C39.96 24.12 43.92 12.24 48 0 C52.62 0 57.24 0 62 0 C61.19121731 4.04391344 60.26951932 7.06805265 58.69921875 10.8125 C58.22266846 11.9562207 57.74611816 13.09994141 57.25512695 14.27832031 C56.73279897 15.51897047 56.21025086 16.75952797 55.6875 18 C54.87025279 19.95027371 54.05420285 21.90104544 53.23826599 23.85186768 C52.67467267 25.19906861 52.11050706 26.54603027 51.54579163 27.89276123 C49.61492258 32.50408585 47.72289083 37.12985623 45.8515625 41.765625 C39.31535983 57.91720005 32.34814177 73.28057677 23 88 C18.62573634 87.5139707 16.96133065 86.1638148 14 83 C14.56267578 82.00033203 14.56267578 82.00033203 15.13671875 80.98046875 C16.78971963 78.00340168 18.39563138 75.0035273 20 72 C20.80050781 70.58267578 20.80050781 70.58267578 21.6171875 69.13671875 C22.09414063 68.22535156 22.57109375 67.31398438 23.0625 66.375 C23.50722656 65.55773437 23.95195312 64.74046875 24.41015625 63.8984375 C25.31845157 59.43515853 23.6799587 56.13295861 22 52 C21.69489502 51.22720703 21.38979004 50.45441406 21.07543945 49.65820312 C20.11852864 47.28092042 19.12841289 44.92050829 18.125 42.5625 C17.77058838 41.72412598 17.41617676 40.88575195 17.05102539 40.02197266 C14.96847006 35.13877222 12.74681303 30.38228992 10.2890625 25.67578125 C8.10678566 21.14590357 6.27131543 16.46770809 4.40991211 11.79833984 C3.13876525 8.63474104 1.89816142 5.84724213 0 3 C0 2.01 0 1.02 0 0 Z " fill="#031F3D" transform="translate(402,54)"></path><path d="M0 0 C8 0 8 0 9.91796875 1.6875 C10.33691406 2.450625 10.75585938 3.21375 11.1875 4 C11.61417969 4.7425 12.04085938 5.485 12.48046875 6.25 C13.23263672 7.61125 13.23263672 7.61125 14 9 C14.40424194 9.47687256 14.80848389 9.95374512 15.22497559 10.44506836 C20.5451945 17.2261293 19.6305837 25.14234222 19.48828125 33.3125 C19.47894246 34.89289221 19.47183139 36.47329901 19.46684265 38.05371094 C19.44785627 42.19029511 19.39882992 46.32598545 19.34332275 50.46221924 C19.29194805 54.69213778 19.26928995 58.92220238 19.24414062 63.15234375 C19.19070074 71.43534944 19.10283563 79.71746016 19 88 C12.73 88 6.46 88 0 88 C0 58.96 0 29.92 0 0 Z " fill="#021F3D" transform="translate(304,26)"></path></svg>