<svg xmlns="http://www.w3.org/2000/svg" version="1.1" viewBox="53 26 411 116">
<path d="M0 0 C26.4 0 52.8 0 80 0 C80 23.76 80 47.52 80 72 C71.09 72 62.18 72 53 72 C52.67 57.48 52.34 42.96 52 28 C43.75 27.67 35.5 27.34 27 27 C27 41.85 27 56.7 27 72 C18.09 72 9.18 72 0 72 C0 48.24 0 24.48 0 0 Z " fill="#011F3D" transform="translate(53,42)"/>
<path d="M0 0 C6.09040686 3.86506589 9.1966778 9.41630192 12 16 C14.65842118 28.07366285 13.42059795 39.22496666 6.8359375 49.6640625 C2.36790126 55.34892563 -3.91544166 58.77852442 -11 60 C-18.58898589 60.74038887 -24.36454356 59.84239222 -31 56 C-31.495 55.505 -31.495 55.505 -32 55 C-32.33 65.23 -32.66 75.46 -33 86 C-39.6 86 -46.2 86 -53 86 C-53 56.96 -53 27.92 -53 -2 C-44 -2 -44 -2 -41.58984375 0.1875 C-41.04457031 1.115625 -40.49929687 2.04375 -39.9375 3 C-39.36902344 3.928125 -38.80054688 4.85625 -38.21484375 5.8125 C-37.61349609 6.8953125 -37.61349609 6.8953125 -37 8 C-36.5875 7.46890625 -36.175 6.9378125 -35.75 6.390625 C-26.04003321 -5.48674509 -13.66243604 -7.39436503 0 0 Z M-30 11 C-34.45458726 18.86977083 -34.31801862 29.40905006 -32.2734375 38.08203125 C-30.48200842 42.93928001 -28.39380549 47.07079634 -24 50 C-20.84335877 50.68997622 -18.15473016 50.70551238 -15 50 C-9.78935953 46.26193184 -7.74567365 41.18606016 -6.3125 35.0625 C-5.38210751 25.94465363 -6.01260199 16.76116557 -11 8.8125 C-14.26273049 5.85565049 -17.6131879 5.58457147 -21.9375 5.6640625 C-25.56406435 6.25475291 -27.80126759 8.22589836 -30 11 Z " fill="#021F3D" transform="translate(281,56)"/>
<path d="M0 0 C4.38344822 2.95362514 8.31634561 6.21274283 12 10 C10.52278578 13.45201639 8.56205999 15.64961936 5.875 18.25 C5.15054688 18.95640625 4.42609375 19.6628125 3.6796875 20.390625 C3.12539062 20.92171875 2.57109375 21.4528125 2 22 C-1.62484399 20.79171867 -1.91408638 19.88290143 -3.8125 16.6875 C-7.11349084 11.52251682 -10.1062058 8.96459807 -16 7 C-22.00815305 6.49043278 -27.23947004 7.32420947 -33 9 C-33.2475 10.216875 -33.495 11.43375 -33.75 12.6875 C-33.88921875 13.37199219 -34.0284375 14.05648437 -34.171875 14.76171875 C-33.89963025 18.30708782 -32.58768766 19.60079339 -30 22 C-27.0975094 23.19577846 -24.12488124 23.83845599 -21.0625 24.5 C-19.34643367 24.91555628 -17.63158127 25.33615703 -15.91796875 25.76171875 C-15.07927246 25.96845215 -14.24057617 26.17518555 -13.37646484 26.38818359 C-3.81795776 28.84900327 4.56973809 32.2307133 11 40 C14.08635186 46.09381934 13.86872426 53.39626611 12.1875 59.9375 C11.08451622 62.78203713 10.10831093 64.80384278 8 67 C7.34 67 6.68 67 6 67 C6 67.66 6 68.32 6 69 C-5.66909936 76.2931871 -20.12721982 76.94146292 -33.49609375 74.3125 C-41.19158744 71.69275747 -48.59279984 67.11248714 -54 61 C-52.53033642 57.60140297 -50.61962486 55.35036291 -48 52.75 C-47.29875 52.04359375 -46.5975 51.3371875 -45.875 50.609375 C-44 49 -44 49 -42 49 C-40.703125 50.57421875 -40.703125 50.57421875 -39.25 52.6875 C-35.35834277 58.0373451 -31.41964714 61.88188968 -25 64 C-18.55028993 64.66840872 -12.48637018 64.85528716 -7 61 C-5.56264754 58.12529507 -5.61827351 56.18105412 -6 53 C-10.40495873 48.13439199 -16.57730277 47.1673111 -22.6875 45.5625 C-34.75621848 42.37863572 -45.4300993 39.29597221 -52.1328125 28.109375 C-54.47187379 22.41976645 -53.61484388 15.68977447 -51.3125 10.125 C-47.58742005 2.86885469 -42.46488256 -0.27578525 -35 -3 C-24.34836612 -6.05868019 -9.62770844 -5.54762429 0 0 Z " fill="#021F3D" transform="translate(206,41)"/>
<path d="M0 0 C6.05321313 5.06493343 9.585583 11.13174901 12.0625 18.5625 C12.73547622 27.14570494 12.45843175 34.07195926 8.0625 41.5625 C7.52625 42.573125 6.99 43.58375 6.4375 44.625 C5.98375 45.264375 5.53 45.90375 5.0625 46.5625 C4.4025 46.5625 3.7425 46.5625 3.0625 46.5625 C2.7325 47.5525 2.4025 48.5425 2.0625 49.5625 C-7.49504101 56.8843589 -17.09295134 58.66724539 -28.9375 57.5625 C-38.56703028 55.4437496 -47.50217855 49.92453299 -52.9375 41.5625 C-55.7233628 36.08064095 -56.43175011 31.73853508 -56.375 25.625 C-56.4049707 24.48514648 -56.4049707 24.48514648 -56.43554688 23.32226562 C-56.42791833 14.38923638 -52.21726277 8.04886518 -46.29296875 1.61328125 C-33.40080719 -9.61123752 -13.78031297 -9.22580275 0 0 Z M-30.9375 5.5625 C-37.25923083 13.39668794 -37.48482512 21.82291967 -36.9375 31.5625 C-36.07493433 37.91709772 -33.67691114 42.82308886 -29.125 47.375 C-25.99327332 49.0750802 -23.49372389 49.43987159 -19.9375 49.5625 C-14.51040869 47.47515719 -11.73496319 45.25875111 -9.27734375 40.03125 C-7.54114777 35.06225484 -7.45880563 30.28295014 -7.5 25.0625 C-7.48001953 24.16402344 -7.46003906 23.26554687 -7.43945312 22.33984375 C-7.44387413 16.26538944 -8.45510495 11.61429646 -11.9375 6.5625 C-15.06463782 3.65872916 -17.41591676 1.73540719 -21.6875 1.25 C-25.92164962 1.65712977 -27.6988732 2.80622188 -30.9375 5.5625 Z " fill="#031F3C" transform="translate(388.9375,58.4375)"/>
<path d="M0 0 C6.27 0 12.54 0 19 0 C23.00095644 8.49182592 26.93242188 16.99008402 30.60180664 25.63085938 C32.18776796 29.32120581 33.91456667 32.52427778 36 36 C39.96 24.12 43.92 12.24 48 0 C52.62 0 57.24 0 62 0 C61.19121731 4.04391344 60.26951932 7.06805265 58.69921875 10.8125 C58.22266846 11.9562207 57.74611816 13.09994141 57.25512695 14.27832031 C56.73279897 15.51897047 56.21025086 16.75952797 55.6875 18 C54.87025279 19.95027371 54.05420285 21.90104544 53.23826599 23.85186768 C52.67467267 25.19906861 52.11050706 26.54603027 51.54579163 27.89276123 C49.61492258 32.50408585 47.72289083 37.12985623 45.8515625 41.765625 C39.31535983 57.91720005 32.34814177 73.28057677 23 88 C18.62573634 87.5139707 16.96133065 86.1638148 14 83 C14.56267578 82.00033203 14.56267578 82.00033203 15.13671875 80.98046875 C16.78971963 78.00340168 18.39563138 75.0035273 20 72 C20.80050781 70.58267578 20.80050781 70.58267578 21.6171875 69.13671875 C22.09414063 68.22535156 22.57109375 67.31398438 23.0625 66.375 C23.50722656 65.55773437 23.95195312 64.74046875 24.41015625 63.8984375 C25.31845157 59.43515853 23.6799587 56.13295861 22 52 C21.69489502 51.22720703 21.38979004 50.45441406 21.07543945 49.65820312 C20.11852864 47.28092042 19.12841289 44.92050829 18.125 42.5625 C17.77058838 41.72412598 17.41617676 40.88575195 17.05102539 40.02197266 C14.96847006 35.13877222 12.74681303 30.38228992 10.2890625 25.67578125 C8.10678566 21.14590357 6.27131543 16.46770809 4.40991211 11.79833984 C3.13876525 8.63474104 1.89816142 5.84724213 0 3 C0 2.01 0 1.02 0 0 Z " fill="#031F3D" transform="translate(402,54)"/>
<path d="M0 0 C8 0 8 0 9.91796875 1.6875 C10.33691406 2.450625 10.75585938 3.21375 11.1875 4 C11.61417969 4.7425 12.04085938 5.485 12.48046875 6.25 C13.23263672 7.61125 13.23263672 7.61125 14 9 C14.40424194 9.47687256 14.80848389 9.95374512 15.22497559 10.44506836 C20.5451945 17.2261293 19.6305837 25.14234222 19.48828125 33.3125 C19.47894246 34.89289221 19.47183139 36.47329901 19.46684265 38.05371094 C19.44785627 42.19029511 19.39882992 46.32598545 19.34332275 50.46221924 C19.29194805 54.69213778 19.26928995 58.92220238 19.24414062 63.15234375 C19.19070074 71.43534944 19.10283563 79.71746016 19 88 C12.73 88 6.46 88 0 88 C0 58.96 0 29.92 0 0 Z " fill="#021F3D" transform="translate(304,26)"/>
<path d="M0 0 C4.45731773 4.13269515 5.82866202 8.62982457 6.2578125 14.56640625 C6.30829972 18.0824808 6.35361808 21.50055875 6 25 C5.34 25.66 4.68 26.32 4 27 C3.94392578 25.51886719 3.94392578 25.51886719 3.88671875 24.0078125 C3.78810547 22.08582031 3.78810547 22.08582031 3.6875 20.125 C3.62949219 18.84882812 3.57148438 17.57265625 3.51171875 16.2578125 C3.34285156 15.18273437 3.17398437 14.10765625 3 13 C2.01 12.34 1.02 11.68 0 11 C0.20625 10.0925 0.4125 9.185 0.625 8.25 C1.0127245 4.88972103 0.80411967 3.75924185 -1 1 C-0.67 0.67 -0.34 0.34 0 0 Z " fill="#0F243D" transform="translate(395,66)"/>
<path d="M0 0 C0.33 0.66 0.66 1.32 1 2 C0.54625 2.4125 0.0925 2.825 -0.375 3.25 C-2.08053436 5.08672931 -2.91213507 6.75627858 -4 9 C-4.495 9.639375 -4.99 10.27875 -5.5 10.9375 C-8.88875604 15.59703956 -9.2313087 19.6249846 -9.125 25.3125 C-9.10695313 26.56675781 -9.08890625 27.82101563 -9.0703125 29.11328125 C-9.04710937 30.06589844 -9.02390625 31.01851562 -9 32 C-9.99 32.495 -9.99 32.495 -11 33 C-11.56159017 19.27224035 -10.91247071 11.87076632 -1.390625 1.46875 C-0.93171875 0.9840625 -0.4728125 0.499375 0 0 Z " fill="#0F2339" transform="translate(344,59)"/>
<path d="M0 0 C10.87322578 2.02721159 21.04239589 5.04239589 29 13 C28.01 13.33 27.02 13.66 26 14 C26 13.34 26 12.68 26 12 C25.34 12 24.68 12 24 12 C24 11.34 24 10.68 24 10 C23.14728516 9.85304688 23.14728516 9.85304688 22.27734375 9.703125 C18.26198758 8.92552681 14.8636434 8.12286887 11.375 5.9375 C7.60029993 3.77054255 5.26192937 3.3479126 1 3 C0.67 2.01 0.34 1.02 0 0 Z " fill="#0E2236" transform="translate(186,66)"/>
<path d="M0 0 C2.23550088 4.47100176 2.23550088 4.47100176 2.0625 8.0625 C1.78408463 11.90432805 1.78408463 11.90432805 3 15 C2.67634096 16.66857236 2.34017158 18.33471558 2 20 C1.7302681 23.26675298 1.58643919 26.53827948 1.4375 29.8125 C1.39431641 30.69615234 1.35113281 31.57980469 1.30664062 32.49023438 C1.20108464 34.65999623 1.10008929 36.8299791 1 39 C0.67 39 0.34 39 0 39 C0 26.13 0 13.26 0 0 Z " fill="#0D233C" transform="translate(229,65)"/>
<path d="M0 0 C0.66 0 1.32 0 2 0 C1.83628906 0.80695313 1.67257813 1.61390625 1.50390625 2.4453125 C0.91102007 6.62768788 0.89105748 10.65944818 0.9375 14.875 C0.94201172 15.65875 0.94652344 16.4425 0.95117188 17.25 C0.96285907 19.16670014 0.98079092 21.08336048 1 23 C0.34 23.33 -0.32 23.66 -1 24 C-2.1303319 20.36485259 -2.16711496 16.91661659 -2.1875 13.125 C-2.20167969 11.93132812 -2.21585938 10.73765625 -2.23046875 9.5078125 C-2.00004992 6.00075978 -1.26279461 3.26429911 0 0 Z " fill="#0F253D" transform="translate(248,69)"/>
<path d="M0 0 C2.88437779 1.29299694 4.87219421 2.65941363 7 5 C5.52278578 8.45201639 3.56205999 10.64961936 0.875 13.25 C0.15054688 13.95640625 -0.57390625 14.6628125 -1.3203125 15.390625 C-1.87460938 15.92171875 -2.42890625 16.4528125 -3 17 C-3.99 16.67 -4.98 16.34 -6 16 C-6.6875 13.9375 -6.6875 13.9375 -7 12 C-6.34 12 -5.68 12 -5 12 C-5 12.66 -5 13.32 -5 14 C-3.68 13.67 -2.36 13.34 -1 13 C-1 12.34 -1 11.68 -1 11 C0.65002828 9.64613064 2.3174387 8.31321858 4 7 C4.33 6.34 4.66 5.68 5 5 C4.34 5 3.68 5 3 5 C1.375 2.5 1.375 2.5 0 0 Z " fill="#102337" transform="translate(211,46)"/>
<path d="M0 0 C0.66 0 1.32 0 2 0 C1.46695025 5.22388757 0.13990185 9.22637279 -2 14 C-3.0546787 16.98268862 -4.03657015 19.98671941 -5 23 C-7 20 -7 20 -6.58447266 17.82348633 C-6.2807373 17.00130615 -5.97700195 16.17912598 -5.6640625 15.33203125 C-5.34179688 14.43935547 -5.01953125 13.54667969 -4.6875 12.62695312 C-4.1615625 11.23379883 -4.1615625 11.23379883 -3.625 9.8125 C-3.28210938 8.87212891 -2.93921875 7.93175781 -2.5859375 6.96289062 C-1.73594255 4.63721001 -0.87361722 2.31688854 0 0 Z " fill="#10263C" transform="translate(445,70)"/>
<path d="M0 0 C0.66 0.33 1.32 0.66 2 1 C1.67 1.66 1.34 2.32 1 3 C0.8771223 4.93460941 0.82445112 6.87402904 0.8125 8.8125 C0.79832031 9.85019531 0.78414062 10.88789062 0.76953125 11.95703125 C1.00369224 15.04875006 1.85458716 17.15338329 3 20 C2.67 20.99 2.34 21.98 2 23 C-2.18195551 17.11912507 -2.90797761 12.15824209 -2 5 C-0.9765625 2.1640625 -0.9765625 2.1640625 0 0 Z " fill="#0E243B" transform="translate(155,51)"/>
<path d="M0 0 C0.99 0.33 1.98 0.66 3 1 C4.28125 3.73046875 4.28125 3.73046875 5.5 7.1875 C6.74473553 10.67834482 7.99289898 13.9858482 9.65625 17.30078125 C11 20 11 20 11 22 C10.34 22 9.68 22 9 22 C7.49709189 18.52208234 5.99816184 15.04246452 4.5 11.5625 C4.07074219 10.56927734 3.64148438 9.57605469 3.19921875 8.55273438 C2.79316406 7.60849609 2.38710938 6.66425781 1.96875 5.69140625 C1.59169922 4.81685791 1.21464844 3.94230957 0.82617188 3.04125977 C0 1 0 1 0 0 Z " fill="#10243C" transform="translate(416,86)"/>
<path d="M0 0 C0.5625 1.9375 0.5625 1.9375 1 4 C0.67 4.33 0.34 4.66 0 5 C0.66 5.33 1.32 5.66 2 6 C2 6.66 2 7.32 2 8 C3.98 7.34 5.96 6.68 8 6 C7.34 7.32 6.68 8.64 6 10 C1.68607774 9.5206753 -0.16569547 8.2542015 -3 5 C-2.01 3.35 -1.02 1.7 0 0 Z " fill="#0F2539" transform="translate(419,132)"/>
<path d="M0 0 C0.66 1.32 1.32 2.64 2 4 C0.68 3.67 -0.64 3.34 -2 3 C-2.99 4.485 -2.99 4.485 -4 6 C-4.66 6 -5.32 6 -6 6 C-6 6.66 -6 7.32 -6 8 C-7.375 9.5 -7.375 9.5 -9 11 C-9.66 11.66 -10.32 12.32 -11 13 C-11 9 -11 9 -9.1015625 6.640625 C-7.87566406 5.45726563 -7.87566406 5.45726563 -6.625 4.25 C-5.81289062 3.45078125 -5.00078125 2.6515625 -4.1640625 1.828125 C-2 0 -2 0 0 0 Z " fill="#122237" transform="translate(164,90)"/>
<path d="M0 0 C0.66 0 1.32 0 2 0 C1.67 2.31 1.34 4.62 1 7 C0.01 7.33 -0.98 7.66 -2 8 C-2.0825 8.94875 -2.165 9.8975 -2.25 10.875 C-3 14 -3 14 -5.0625 15.375 C-5.701875 15.58125 -6.34125 15.7875 -7 16 C-5.56835889 12.34061828 -4.01065704 8.76011932 -2.375 5.1875 C-1.92898438 4.21167969 -1.48296875 3.23585938 -1.0234375 2.23046875 C-0.51683594 1.12638672 -0.51683594 1.12638672 0 0 Z " fill="#0E2239" transform="translate(427,115)"/>
<path d="M0 0 C0.99 0.33 1.98 0.66 3 1 C3 1.66 3 2.32 3 3 C3.99 3.33 4.98 3.66 6 4 C6 5.98 6 7.96 6 10 C5.34 10 4.68 10 4 10 C3.34 11.65 2.68 13.3 2 15 C1.67 14.01 1.34 13.02 1 12 C1.33 11.34 1.66 10.68 2 10 C2.25797575 6.04437178 2.09440189 3.40340307 0 0 Z " fill="#0E243B" transform="translate(198,90)"/>
<path d="M0 0 C2.49388574 4.98777148 1.88836125 6.66983248 1 12 C1.66 12.33 2.32 12.66 3 13 C2.67 13.66 2.34 14.32 2 15 C1.01 15 0.02 15 -1 15 C-0.67 10.05 -0.34 5.1 0 0 Z " fill="#05182C" transform="translate(229,127)"/>
<path d="M0 0 C5.94074887 1.00332648 10.20186518 2.30912706 15 6 C14.67 6.66 14.34 7.32 14 8 C13.34 8 12.68 8 12 8 C11.56042969 7.55011719 11.12085938 7.10023437 10.66796875 6.63671875 C8.69642925 4.70211676 6.85057715 3.87922808 4.3125 2.8125 C3.50425781 2.46832031 2.69601563 2.12414063 1.86328125 1.76953125 C1.24839844 1.51558594 0.63351563 1.26164062 0 1 C0 0.67 0 0.34 0 0 Z " fill="#11223C" transform="translate(195,38)"/>
<path d="M0 0 C0.66 0 1.32 0 2 0 C2 0.66 2 1.32 2 2 C1.34 2 0.68 2 0 2 C-0.33 2.99 -0.66 3.98 -1 5 C-5.33333333 8 -5.33333333 8 -8 8 C-7.8125 6.125 -7.8125 6.125 -7 4 C-4.5625 2.875 -4.5625 2.875 -2 2 C-1.34 1.34 -0.68 0.68 0 0 Z " fill="#092035" transform="translate(392,103)"/>
<path d="M0 0 C0.66 0.33 1.32 0.66 2 1 C0.90931332 4.77545388 0.0916909 7.47043472 -3 10 C-3 6.13304322 -1.58090029 3.4911548 0 0 Z " fill="#0F243C" transform="translate(435,118)"/>
<path d="M0 0 C3.3 0 6.6 0 10 0 C7.83304275 2.16695725 7.00388632 2.73495121 4 3 C2.68 2.01 1.36 1.02 0 0 Z " fill="#11263F" transform="translate(255,106)"/>
<path d="M0 0 C1.875 0.125 1.875 0.125 4 1 C5.25 4.0625 5.25 4.0625 6 7 C3.00675737 5.9024777 2.15389099 5.32317108 0.75 2.375 C0.5025 1.59125 0.255 0.8075 0 0 Z " fill="#0F253B" transform="translate(418,54)"/>
</svg>